<svg xmlns="http://www.w3.org/2000/svg" xmlns:xlink="http://www.w3.org/1999/xlink" width="500" zoomAndPan="magnify" viewBox="0 0 375 374.999991" height="500" preserveAspectRatio="xMidYMid meet" version="1.0"><defs><clipPath id="7cf347c48c"><path d="M 12 6.476562 L 375 6.476562 L 375 368.726562 L 12 368.726562 Z M 12 6.476562 " clip-rule="nonzero"/></clipPath></defs><path fill="#5964e0" d="M 222.203125 191.902344 C 207.144531 218.855469 178.355469 237.066406 145.308594 237.066406 C 112.265625 237.066406 83.472656 218.855469 68.417969 191.902344 C 71.371094 186.121094 75.433594 180.761719 80.394531 175.972656 C 82.445312 173.96875 84.660156 172.078125 87.011719 170.308594 C 98.527344 161.582031 113.429688 155.433594 130.109375 153.070312 C 133.101562 152.644531 136.152344 152.339844 139.238281 152.171875 C 140.042969 152.132812 140.839844 152.101562 141.652344 152.074219 L 141.589844 152.378906 L 141.105469 154.898438 L 128.691406 210.078125 L 145.308594 228.496094 L 161.917969 210.078125 L 149.503906 154.898438 L 149.019531 152.378906 L 148.957031 152.074219 C 149.769531 152.101562 150.566406 152.132812 151.367188 152.171875 C 154.453125 152.339844 157.507812 152.644531 160.5 153.070312 C 177.179688 155.433594 192.078125 161.582031 203.597656 170.308594 C 211.640625 176.382812 218.035156 183.730469 222.203125 191.902344 " fill-opacity="1" fill-rule="nonzero"/><path fill="#5964e0" d="M 133.074219 143.519531 C 135.21875 144.191406 137.449219 144.695312 139.734375 145 C 140.976562 145.171875 142.234375 145.28125 143.511719 145.339844 C 144.097656 145.375 144.695312 145.375 145.304688 145.375 C 145.910156 145.375 146.507812 145.375 147.09375 145.339844 C 148.371094 145.28125 149.632812 145.171875 150.871094 145 C 153.15625 144.695312 155.386719 144.191406 157.53125 143.519531 C 174.257812 138.308594 186.390625 122.707031 186.390625 104.261719 C 186.390625 81.554688 167.996094 63.140625 145.304688 63.140625 C 122.609375 63.140625 104.21875 81.554688 104.21875 104.261719 C 104.21875 122.707031 116.351562 138.308594 133.074219 143.519531 " fill-opacity="1" fill-rule="nonzero"/><g clip-path="url(#7cf347c48c)"><path fill="#5964e0" d="M 145.308594 34.722656 C 202.945312 34.722656 249.660156 81.488281 249.660156 139.171875 C 249.660156 157.664062 244.863281 175.035156 236.4375 190.097656 C 218.59375 222.042969 184.46875 243.625 145.308594 243.625 C 106.148438 243.625 72.027344 222.042969 54.183594 190.097656 C 45.753906 175.035156 40.957031 157.664062 40.957031 139.171875 C 40.957031 81.488281 87.675781 34.722656 145.308594 34.722656 Z M 370.972656 346.5 L 248.574219 223.980469 L 253.394531 217.292969 C 254.640625 215.558594 255.851562 213.789062 257.003906 211.992188 L 257.003906 211.980469 C 272.808594 187.632812 280.246094 158.5 278.03125 129.246094 C 275.632812 97.492188 261.945312 67.628906 239.476562 45.140625 C 214.363281 20.003906 180.921875 6.160156 145.308594 6.160156 C 109.6875 6.160156 76.242188 20.003906 51.132812 45.140625 C 6.121094 90.191406 0.125 159.738281 33.167969 211.3125 C 38.21875 219.242188 44.214844 226.734375 51.132812 233.660156 C 54.863281 237.394531 58.785156 240.875 62.859375 244.097656 C 63.523438 244.621094 64.1875 245.140625 64.855469 245.648438 C 79.332031 256.671875 95.78125 264.515625 113.332031 268.808594 C 123.664062 271.34375 134.382812 272.636719 145.308594 272.636719 C 156.199219 272.636719 166.90625 271.34375 177.25 268.808594 C 193.675781 264.792969 209.195312 257.640625 223.121094 247.589844 L 225.8125 245.648438 L 227.75 244.257812 L 229.808594 242.765625 L 352.210938 365.28125 C 354.71875 367.789062 358.050781 369.171875 361.585938 369.171875 C 365.136719 369.171875 368.46875 367.789062 370.972656 365.28125 C 373.480469 362.769531 374.851562 359.433594 374.851562 355.882812 C 374.851562 352.34375 373.480469 349.011719 370.972656 346.5 " fill-opacity="1" fill-rule="nonzero"/></g></svg>